<svg xmlns="http://www.w3.org/2000/svg" viewBox="0 0 23 23"><path d="M1 1h7v7h-7zM15 1h7v7h-7zM2 2v5h5v-5zM10 2h2v1h-1v1h-1v5h-1v-6h1zM13 2h1v1h-1zM16 2v5h5v-5zM3 3h3v3h-3zM12 3h1v2h-1zM17 3h3v3h-3zM11 5h1v1h-1zM13 5h1v1h-1zM12 6h1v1h-1zM11 7h1v1h-1zM13 7h1v1h-1zM1 9h1v2h-1zM3 9h5v1h-3v1h-1v-1h-1zM12 9h1v1h-1zM15 9h5v1h2v1h-1v1h1v1h-1v1h1v1h-1v2h1v1h-2v-1h-1v-1h1v-1h-1v1h-1v-1h-1v-1h-2v-1h1v-1h2v-1h-2v1h-1v-1h-1v1h-1v-2h2zM9 10h1v1h-1zM2 11h2v1h1v-1h1v2h-3v-1h-1zM7 11h2v1h1v3h-1v-2h-1v-1h-1zM10 11h1v1h-1zM19 11v1h1v-1zM1 12h1v1h-1zM11 12h1v1h-1zM14 12h1v1h-1zM2 13h1v1h-1zM7 13h1v1h-1zM19 13v1h1v-1zM11 14h2v1h2v2h-1v-1h-1v1h-1v-2h-1zM1 15h7v7h-7zM10 15h1v3h1v1h2v-1h1v-1h1v1h3v1h-4v1h-3v1h-1v-2h-1v1h-1v-4h1zM2 16v5h5v-5zM3 17h3v3h-3zM13 17h1v1h-1zM17 20h3v1h-1v1h-1v-1h-1zM9 21h2v1h-2zM12 21h1v1h-1zM15 21h2v1h-2zM20 21h1v1h-1z"/></svg>